<svg width="250" height="250" viewBox="0 0 250 250" fill="none" xmlns="http://www.w3.org/2000/svg"><path d="m0 116.959.035-.146c.335-1.516.435-3.026.835-4.548 2.52-9.547 10.093-15.352 20.052-14.77 2.82 11.351 3.05 31.009.153 42.366-2.72.059-5.294-.064-7.914-.84-6.422-1.909-10.928-7.497-12.444-13.895-.288-1.216-.394-2.673-.717-3.831v-4.341zm230.059-19.511c4.254.088 7.103.505 10.875 2.831 4.213 2.597 6.856 7.086 8.155 11.775.394 1.427.576 3.084.911 4.576v4.407c-.559 3.008-.776 5.194-2.098 8.055-3.613 7.814-9.735 10.711-17.984 10.799-2.956-10.018-2.621-32.408.141-42.443m-8.995 56.661c1.863.511 2.838.611 4.747.805l-.053.2c-.27 1.034-.505 3.272-.716 4.459a105 105 0 0 1-1.781 7.849c-3.578 13.502-11.486 24.024-23.436 31.198-7.385 4.43-18.402 8.59-26.903 9.976.276-.511 3.455-2.238 4.124-2.655 2.732-1.681 5.4-3.461 8.008-5.329a102.7 102.7 0 0 0 36.016-46.497zm-196.387.823c1.386-.13 2.644-.212 3.995-.57 1.363 3.308 2.808 6.709 4.453 9.882a105.2 105.2 0 0 0 31.721 36.58c3.026 2.203 6.31 4.383 9.553 6.245.64.37 1.422.646 1.763 1.234-24.306-5.347-42.308-16.762-49.053-41.732a83 83 0 0 1-1.522-6.639c-.258-1.475-.464-3.649-.91-5" fill="#3962f1"></path><path d="M148.405 68.694c11.868-.828 22.149 8.131 22.954 20 .799 11.868-8.184 22.132-20.052 22.901-11.827.77-22.05-8.178-22.849-20.005s8.125-22.068 19.947-22.896m-51.01 7.902c8.319-1.016 15.881 4.912 16.88 13.231.998 8.32-4.941 15.869-13.267 16.857-8.302.981-15.828-4.942-16.827-13.243-.998-8.296 4.912-15.834 13.208-16.85z" fill="currentColor"></path><path d="M208.673 103.258c.258.276.634 11.88.664 13.261.205 10.235-.312 23.619 5.323 32.59-4.06 11.457-11.639 23.196-20.094 31.885-1.786-6.21-8.472-12.308-14.717-13.713-.735-.164-1.275.3-1.287 1.052.441.952 1.763 1.522 2.708 2.068-8.248 11.639-24.758 19.318-38.195 22.691a81 81 0 0 1-6.668 1.422c-3.385.54-9.16.381-8.702 5.575.329 3.713 3.525 4.418 6.757 3.901 19.811-3.161 41.409-11.715 53.853-28.189 1.674 1.774 3.613 5.305 5.111 6.369-1.997 2.162-4.87 4.629-7.15 6.498-12.15 9.964-25.663 16.539-40.663 20.951-3.684-4.313-5.981-3.437-11.233-3.472-7.626-.053-15.259.029-22.885 0-3.954-.012-4.776.711-7.414 3.413a102 102 0 0 1-11.557-3.831c-21.374-8.436-40.328-23.418-51.526-43.641-2.339-4.23-3.72-7.626-5.6-11.957 6.228-7.567 5.952-23.636 6.028-32.878q.044-3.78.212-7.561c.018-.541.07-3.884.235-4.189.323 2.42.335 4.923.593 7.361.9 8.52 3.003 19.747 9.119 26.075 13.496 13.96 49.787 17.362 68.712 17.749 20.974.429 48.177-1.586 67.284-10.422 3.795-1.757 7.643-3.872 10.669-6.792a25.5 25.5 0 0 0 5.482-7.767c3.343-7.303 4.782-20.441 4.917-28.46zm-86.32-75.744c4.242-.106 8.983.03 13.249.147 16.339.458 33.471 2.103 48.771 8.143-.447.376-.999.805-1.416 1.193-4.425 4.107-5.77 10.129-6.745 15.822-.517 3.043-.893 5.4-1.064 8.496-2.144-.5-4.483-.793-6.656-1.134-13.396-2.127-27.056-2.862-40.599-2.985-4.206-.14-9.488.035-13.683.165a249 249 0 0 0-39.2 4.024a70 70 0 0 0-.106-1.592c-.5-5.899-1.863-14.594-5.006-19.6-1.128-1.798-2.244-2.885-3.842-4.224 2.92-1.287 6.233-2.327 9.306-3.19 15.346-4.296 31.169-5 46.985-5.26z" fill="#3962f1"></path><path d="M185.624 36.403c1.903.459 4.794 2.11 6.568 3.038 11.663 6.087 19.824 15.082 25.429 26.92-1.833 3.614-5.605 9.225-5.682 13.337-.035 1.928.782 5.535 1.128 7.585a181 181 0 0 1 1.528 11.075c.899 9.178.928 18.132 1.228 27.315.247 7.561.975 16.398 8.807 19.905a96 96 0 0 1-.676 6.487c-.987-.218-1.533-.359-2.479-.694-11.04-4.377-9.224-28.278-9.636-38.089-.487-11.545-1.38-28.754-7.273-39.095-4.019-7.056-20.487-10.916-28.202-12.614.077-1.34.241-3.067.429-4.412.805-5.805 1.692-12.509 5.27-17.338 1.034-1.393 2.221-2.38 3.561-3.42m-120.925.094c7.28 4.765 8.349 17.215 9.177 25.2-5.4 1.133-10.852 2.432-15.969 4.53-3.966 1.627-8.02 3.513-10.781 6.903-2.22 2.726-3.584 6.962-4.518 10.382-2.615 9.617-3.25 19.705-3.637 29.658-.405 10.317.588 21.656-3.278 31.468-1.293 3.284-3.214 5.458-6.48 6.786-.87.347-1.54.5-2.45.652-.042-1.944-.412-4.471-.53-6.515l.553-.247c3.202-1.493 5.352-4.001 6.433-7.344 2.215-6.822 1.822-15.153 2.062-22.315.2-6.04.376-11.286.976-17.279.34-3.196.77-6.38 1.28-9.56.347-2.108 1.587-8.101 1.364-9.981-.447-3.737-3.92-8.984-5.629-12.614 1.11-2.668 3.067-6 4.683-8.408C44.67 47.8 53.753 41.245 64.71 36.503zm46.35 172.164 19.277.03c3.108 0 6.34-.065 9.407.07 5.511.241 6.169 9.865 2.461 12.632-.999.746-1.798.952-3.014 1.028-5.705.182-12.344.024-18.107.029h-6.839c-1.369 0-2.768.065-4.125-.094-4.265-.528-4.976-4.23-4.741-7.825.235-3.69 1.868-5.67 5.687-5.858z" fill="#3962f1"></path><path d="M218.191 67.93c.487.44 1.175 2.415 1.433 3.126a86 86 0 0 1 4.671 19.694c.083.681.447 3.701.388 4.271-.27 2.797-1.063 5.676-1.439 8.543a119.5 119.5 0 0 0-.946 19.506c.129 4.365.523 8.713 1.169 13.031.394 2.615 1.463 5.87 1.345 8.249l-1.492-.852c-6.951-4.418-6.292-17.772-6.498-25.128-.259-9.042-.5-17.967-1.839-26.95-.535-3.584-1.363-7.11-1.727-10.711-.382-4.266 2.972-9.025 4.929-12.773zM32.52 67.825c1.04.951 5.199 9.547 5.146 11.08-.194 4.26-1.157 8.602-1.839 12.838-2.168 13.29-1.316 26.75-2.49 40.093-.383 4.318-1.846 8.684-5.36 11.38-.463.318-1.045.764-1.585.817-.17-.082-.27-.07-.335-.264-.194-.564 1.198-6.199 1.369-7.321.399-2.72.71-5.458.922-8.196.517-7.144.405-14.324-.317-21.451a152 152 0 0 0-.752-5.881c-.512-3.331-1.27-4.553-.94-7.984.834-8.643 2.72-17.127 6.18-25.106z" fill="#3962f1"></path></svg>
